<?xml version="1.0" encoding="utf-8"?>
<!-- Generator: Adobe Illustrator 29.8.2, SVG Export Plug-In . SVG Version: 9.03 Build 0)  -->
<svg version="1.0" id="Layer_1" xmlns="http://www.w3.org/2000/svg" xmlns:xlink="http://www.w3.org/1999/xlink" x="0px" y="0px"
	 viewBox="0 0 2400 1070" style="enable-background:new 0 0 2400 1070;" xml:space="preserve">
<style type="text/css">
	.st0{fill:none;}
</style>
<g>
	<path d="M684.09,335.86c37.62,9.16,82.37-16.87,92.32-53.67c4.56-16.78,1.88-45.28-5.62-59.97c-7.8-15.34-30.47-35.39-44.31-39.21
		c-28.59-7.95-60.62-0.71-79.99,18.08c-16.99,16.49-23.26,31.82-23.32,56.94C623.12,297.94,645.4,326.44,684.09,335.86z"/>
	<path d="M1224.73,419.06c49.96-90.47,134.81-121.29,333.94-121.29c75.99,0,127.92,2.68,256.75,13.25
		c188.09,15.4,226.51,16.04,281.15,4.74c58-12.04,102.78-36.3,139.52-75.66c38.83-41.57,55.38-87.5,52.58-146.02
		c-1.35-28.44-2.59-34.21-10.95-51.26c-12.6-25.58-27.2-36.51-48.81-36.51c-16.37,0-17.22,0.38-76.4,33.56
		c-107.52,60.26-235.43,95.74-510.79,141.58c-117.29,19.55-195.75,37.01-245.97,54.7c-105.93,37.39-169.22,103.25-179.47,186.74
		l-1.8,14.72L1224.73,419.06z"/>
	<path d="M349.5,231.85c-22.61-3.86-51.84-4.74-158.39-4.74H60.46l0.88,12.22c0.88,11.75,1.44,12.36,14.4,16.13
		c15.57,4.53,22.29,10.92,27.88,26.64c6.3,17.63,6.12,444.11-0.21,465.33c-5.15,17.34-16.99,29-32.41,31.88
		c-9.8,1.85-10.22,2.41-10.22,14.84v12.92h112.61c61.94,0,127.18-1.35,144.99-3.03c172.28-16.07,266.43-118,266.43-288.43
		C584.82,357.79,501.94,257.84,349.5,231.85z M415.92,611.12c-15.49,93.35-47.1,139.28-104.31,151.44
		c-26.05,5.51-42.92,3.86-49.9-4.98c-4.74-5.98-5.42-471.66-0.71-480.49c1.65-3.06,7.48-6.42,12.95-7.45
		c14.69-2.74,51.05,3.65,68.33,12.04c38.45,18.64,63.03,64.86,75.16,141.2C423.37,460.01,422.45,571.76,415.92,611.12z"/>
	<path d="M2233.43,392.53c-33.18-16.37-59.03-22.29-97.8-22.35c-85.82-0.15-155.03,40.24-189.04,110.34
		c-26.35,54.29-31.74,135.54-12.87,193.42c23.46,71.95,75.34,119.7,148.29,136.54c27.11,6.24,91.38,3.77,117.76-4.56
		c29.5-9.3,54.91-24.32,77.96-46.07c46.84-44.19,67.77-96.83,67.77-170.4c0-69.54-18.16-117.58-60.23-159.33
		C2265.81,410.84,2255.8,403.57,2233.43,392.53z M2088.01,700.36l-27.05,16.52V585.95V455.1l91.97,62.83
		c50.57,34.55,94.78,65.35,98.17,68.38C2256.44,591,2184.74,641.14,2088.01,700.36z"/>
	<path d="M1193.11,746.87c-32.12-18.52-70.66-24.67-174.79-27.88c-68.71-2.12-81.28-3.21-91-7.98c-9.8-4.77-11.42-7.01-12.22-16.78
		c-1.12-13.48,4.71-23.55,17.55-30.18c8.13-4.18,12.63-4.33,38.74-1.12c72.19,8.83,134.19-8.83,175.99-50.14
		c27.82-27.5,40.72-57.44,40.89-94.83c0.15-38.21-13.95-72.54-40.69-98.95l-15.84-15.66l1.15-20.25c0.94-16.4,2.5-21.73,8.18-27.79
		c3.89-4.12,8.57-7.51,10.42-7.51c10.39,0,35.42-10.36,44.66-18.49c13.04-11.42,18.67-24.08,18.67-41.86
		c0-33.3-23.43-54.41-60.5-54.43c-15.22-0.03-40.54,12.42-48.75,23.99c-11.92,16.75-15.07,33.62-11.19,60.15
		c3.97,27.06,1.83,48.02-5.8,57.47l-5.24,6.45l-21.84-5.59c-28.5-7.3-83.64-7.36-113.11-0.12
		C846.13,400.51,797.99,495.66,842.8,584.1c8.74,17.28,35.48,44.84,51.99,53.64c6.01,3.21,10.89,6.51,10.86,7.36
		c-0.03,0.82-8.98,5.71-19.9,10.83c-22.82,10.72-41.75,28.41-51.17,47.84c-9.3,19.22-9.54,57.76-0.47,77.46
		c7.3,15.84,28.65,37.92,41.98,43.45c9.27,3.83,12.1,8.89,4.98,8.89c-9.39,0-46.13,21.55-57.23,33.59
		c-21.58,23.4-25.58,34.27-25.58,69.45c0,28.29,0.71,32.27,8.39,46.84c21.87,41.57,73.95,70.72,141.75,79.34
		c125.59,15.96,242.35-28.82,282.51-108.34c23.11-45.75,27.23-106.16,10.33-151.32C1234.06,783.94,1211.39,757.44,1193.11,746.87z
		 M968.98,431.21c7.51-25.14,26.79-37.3,48.72-30.74c21.99,6.59,30.44,26.91,35.89,86.17c2.59,28.29,2.59,45.72,0,72.13
		c-4.3,44.01-7.74,55.76-19.81,67.83c-8.66,8.66-11.51,9.72-25.97,9.72c-30.65,0-40.86-16.93-46.57-77.04
		C957.5,519.8,961.3,456.89,968.98,431.21z M1100.02,937.14c-16.07,5.24-27.61,6.39-72.13,7.1c-54.29,0.85-70.83-0.71-96.92-9.19
		c-30.65-9.95-45.84-25.14-45.87-45.9c0-13.78,8.36-24.23,27.53-34.33l15.16-8.01l60.21,0.77c83.85,1.06,132.83,8.71,148.5,23.26
		C1159.25,891.95,1141.94,923.45,1100.02,937.14z"/>
	<path d="M811.5,795.95c0-10.19-1.03-11.6-12.48-16.93c-7.65-3.56-14.75-9.77-18.4-16.1c-5.74-9.98-5.95-16.1-6.77-201.19
		c-0.68-147.7-1.68-190.6-4.42-189.59c-1.97,0.74-40.95,10.45-86.67,21.61l-83.11,20.31l-0.06,12.28
		c-0.06,11.16,0.71,12.45,8.39,14.13c11.13,2.44,19.67,12.04,23.64,26.58c2.09,7.65,3.21,57.08,3.21,141.52
		c0.03,107.66-0.74,132.3-4.45,144.85c-4.53,15.25-14.13,25.29-26.44,27.59c-4.59,0.88-6.09,3.83-6.8,13.6l-0.88,12.48h107.6H811.5
		V795.95z"/>
	<path d="M1935.65,415.11c-4.3-14.4-19.84-32.71-33-38.95c-5.8-2.74-17.46-4.8-27.32-4.77c-35,0.06-67.68,24.76-88.5,66.86
		l-11.16,22.64l-0.82-44.78c-0.44-24.61-1.15-44.75-1.59-44.75c-0.88,0-144.11,36.68-161.71,41.42
		c-10.57,2.83-11.04,3.5-11.04,15.46c0,12.04,0.44,12.63,12.51,16.81c9.74,3.36,13.81,6.95,18.4,16.1
		c5.56,11.16,5.95,18.67,6.8,142.78c0.5,72.04,0.09,136.66-0.94,143.58c-2.27,15.63-11.19,26.23-26.47,31.41
		c-9.33,3.18-11.98,5.65-12.72,11.89c-0.53,4.36-0.24,9.8,0.62,12.07c1.35,3.5,20.96,4.18,122.41,4.18h120.79v-13.19
		c0-12.04-0.71-13.34-8.1-14.84c-23.61-4.77-38.57-10.95-46.52-19.22l-8.68-9.07V630.97c0-109.16,0.47-120.62,5.24-129.33
		c7.27-13.37,18.43-12.84,43.16,2.06c31.35,18.87,53.46,21.2,77.43,8.07C1931.44,496.98,1946.33,450.82,1935.65,415.11z"/>
	<path d="M1590.37,655.81l-10.25-7.83l-13.95,13.37c-27.41,26.26-63.8,38.66-105.75,36.06c-60-3.74-97.12-42.86-103.25-108.75
		l-1.88-20.05h112.05h112.05l3.21-14.87c4.42-20.64,3.92-60.12-1-78.58c-13.37-50.17-50.78-85.2-106.1-99.33
		c-23.35-5.95-82.82-5.98-106.22,0c-55.05,13.98-104.22,55.26-129.74,108.87c-15.01,31.59-19.28,51.43-20.87,97.15
		c-1.18,33.68-0.38,46.37,4.39,69.36c16.6,80.28,67.42,136.87,140.08,155.92c26.58,6.98,75.99,7.62,100.6,1.35
		c53.46-13.66,90.44-46.84,121.32-108.87C1602.33,664.94,1602.33,664.91,1590.37,655.81z M1358.71,498.4
		c3.86-30.06,12.13-59.09,20.9-73.34c18.16-29.5,60.5-28.12,75.81,2.44c8.27,16.57,13.1,47.93,12.01,77.96l-0.88,23.41l-51.52,0.74
		c-28.32,0.38-53.38-0.47-55.61-1.91C1355.97,525.48,1355.85,520.68,1358.71,498.4z"/>
</g>
<rect class="st0" width="2400" height="1070"/>
</svg>
